# xmcd CD database file
#
# Track frame offsets:
#	150
#	15917
#	34999
#
# Disc length: 676 seconds
#
# Revision: 2
# Processed by: cddbd v1.5.2PL0 Copyright (c) Steve Scherf et al.
# Submitted via: CDex 1.70beta2
#
DISCID=1702a203
DTITLE=Florent Pagny - Cecilia Cara - L'air du temps
DYEAR=2002
DGENRE=Pop/Rock
TTITLE0=L'air du temps
TTITLE1=Terre
TTITLE2=L'air du temps - version 2001
EXTD=YEAR: 2002
EXTT0=
EXTT1=
EXTT2=
PLAYORDER=
